# xmcd CD database file
#
# Track frame offsets:
#	150
#	22397
#	39845
#	58135
#
# Disc length: 1023 seconds
#
# Revision: 0
# Processed by: cddbd v1.5.1PL0 Copyright (c) Steve Scherf et al.
# Submitted via: CDex 1.51
#
DISCID=3103fd04
DTITLE=cheri - Love and Hate
DYEAR=2002
DGENRE=JPop
TTITLE0=Resign
TTITLE1=鎖
TTITLE2=夏の陽炎
TTITLE3=痛々しいラブ
EXTD=YEAR: 2002
EXTT0=
EXTT1=
EXTT2=
EXTT3=
PLAYORDER=
